<svg width="9" height="15" viewBox="0 0 9 15" fill="none" xmlns="http://www.w3.org/2000/svg">
<path d="M0.840133 11.56L4.02013 14.285C4.02295 14.285 4.02513 14.2873 4.02513 14.29L4.04013 14.305C4.04513 14.31 4.05513 14.315 4.06013 14.32C4.06498 14.3263 4.07216 14.3298 4.08013 14.33C4.08513 14.335 4.09513 14.34 4.10013 14.345C4.10513 14.35 4.11513 14.35 4.12013 14.355C4.12513 14.36 4.13513 14.36 4.14513 14.365C4.15013 14.37 4.16013 14.37 4.16513 14.375C4.17513 14.38 4.18013 14.38 4.19013 14.385C4.19513 14.385 4.20513 14.39 4.21013 14.39C4.22013 14.39 4.22513 14.395 4.23513 14.395C4.24013 14.395 4.25013 14.4 4.25513 14.4C4.26513 14.4 4.27513 14.405 4.28513 14.405H4.41513C4.42513 14.405 4.43513 14.4 4.44513 14.4C4.45013 14.4 4.46013 14.395 4.46513 14.395C4.47513 14.395 4.48013 14.39 4.49013 14.39C4.49513 14.39 4.50513 14.385 4.51013 14.385C4.52013 14.38 4.52513 14.38 4.53513 14.375C4.54013 14.37 4.55013 14.37 4.55513 14.365C4.56513 14.36 4.57013 14.36 4.58013 14.355C4.58513 14.35 4.59513 14.35 4.60013 14.345C4.60513 14.34 4.61513 14.335 4.62013 14.33C4.62513 14.325 4.63013 14.325 4.64013 14.32C4.64513 14.315 4.65513 14.31 4.66013 14.305L4.67513 14.29C4.67795 14.29 4.68013 14.2877 4.68013 14.285L7.86013 11.56C8.07013 11.3805 8.09466 11.0648 7.91513 10.855C7.73576 10.6452 7.42013 10.6205 7.21013 10.8L4.85013 12.82V0.5C4.85013 0.22375 4.62638 0 4.35013 0C4.07388 0 3.85013 0.22375 3.85013 0.5V12.82L1.49013 10.8C1.28013 10.6205 0.964508 10.6452 0.785133 10.855C0.605602 11.0648 0.630133 11.3805 0.840133 11.56Z" fill="black"/>
</svg>
